# File created by Blade
# Date/Time:  Thu Sep 25 15:41:58 2014
# Frame Rate: 120.000 fps
#------------------------------------------------------
:FULLY-SPECIFIED
:DEGREES
365
root 24.267341 32.304845 -2.481633 155.077312 -75.430640 -116.109783
Spine 25.853558 14.171336 4.277091
Head -40.250664 -1.575030 8.160025
LeftShoulder 18.670229 -3.784138 25.014467
LeftArm 65.853764 -10.320819 -32.858185
LeftForeArm 2.414780 0.000000 15.659271
LeftHand -25.214479 -0.000000 -3.759201
LeftHandThumb1 -26.253704 0.000000 33.147579
RightShoulder 13.497882 35.374607 -22.654152
RightArm 42.801353 -12.110305 56.016976
RightForeArm -22.129988 -0.000000 16.336504
RightHand -4.681316 -0.000000 3.744143
RightHandThumb1 -24.326973 -0.000000 -32.862282
LeftUpLeg -77.877381 9.912835 -2.159460
LeftLeg 11.777055 -0.000000 -0.000000
LeftFoot 36.558066 28.116221 -15.618502
LeftToeBase 14.685131 -0.000000 -0.000000
RightUpLeg -31.594290 2.249287 21.173155
RightLeg 3.660999 -0.000000 -0.000000
RightFoot -12.394635 -8.220286 -7.615935
RightToeBase -1.880298 -0.000000 0.000000
366
root 24.067028 32.288989 -2.486291 155.322111 -75.378369 -116.151684
Spine 25.794141 14.254573 4.096271
Head -40.261917 -1.521830 8.290280
LeftShoulder 18.606969 -4.096701 25.433124
LeftArm 65.873010 -10.957044 -32.884526
LeftForeArm 2.518941 0.000000 15.697074
LeftHand -25.179541 -0.000000 -3.876410
LeftHandThumb1 -26.253704 0.000000 33.147579
RightShoulder 13.507266 35.474370 -22.770893
RightArm 43.222326 -11.551722 55.701148
RightForeArm -22.131273 -0.000000 16.443685
RightHand -4.741149 -0.000000 3.722591
RightHandThumb1 -24.326973 -0.000000 -32.862282
LeftUpLeg -77.974424 9.930581 -2.118649
LeftLeg 11.925472 -0.000000 -0.000000
LeftFoot 36.152007 28.368922 -16.442751
LeftToeBase 13.354487 -0.000000 -0.000000
RightUpLeg -31.447348 2.280655 21.128600
RightLeg 3.724968 -0.000000 -0.000000
RightFoot -12.682102 -8.273052 -7.664951
RightToeBase -1.908797 -0.000000 0.000000
367
root 23.863405 32.275320 -2.489052 155.629464 -75.376405 -116.187835
Spine 25.646093 14.333819 3.920844
Head -40.257261 -1.508043 8.312814
LeftShoulder 18.617692 -4.370359 25.704340
LeftArm 65.943707 -11.676987 -33.006263
LeftForeArm 2.607207 -0.000000 15.712136
LeftHand -25.226482 -0.000000 -4.074849
LeftHandThumb1 -26.253704 0.000000 33.147579
RightShoulder 13.457726 35.659633 -22.922622
RightArm 43.556514 -11.151197 55.399554
RightForeArm -21.962694 -0.000000 16.511234
RightHand -4.811606 -0.000000 3.640893
RightHandThumb1 -24.326973 -0.000000 -32.862282
LeftUpLeg -78.146704 9.878856 -2.117777
LeftLeg 12.161062 -0.000000 -0.000000
LeftFoot 35.713066 28.385163 -16.603941
LeftToeBase 13.276871 -0.000000 -0.000000
RightUpLeg -31.368019 2.335070 21.012857
RightLeg 3.802205 -0.000000 -0.000000
RightFoot -13.003440 -8.165323 -7.527629
RightToeBase -1.869579 -0.000000 0.000000
368
root 23.654100 32.261282 -2.491983 155.945436 -75.347331 -116.242020
Spine 25.522066 14.420737 3.754435
Head -40.230788 -1.495463 8.332726
LeftShoulder 18.562013 -4.627372 26.024456
LeftArm 65.973431 -12.285937 -32.975069
LeftForeArm 2.499420 -0.000000 15.765842
LeftHand -25.081916 -0.000000 -4.129104
LeftHandThumb1 -26.253704 0.000000 33.147579
RightShoulder 13.440878 35.897289 -23.112594
RightArm 43.785697 -10.798808 55.138965
RightForeArm -21.983183 -0.000000 16.634325
RightHand -4.911723 0.000000 3.280296
RightHandThumb1 -24.326973 -0.000000 -32.862282
LeftUpLeg -78.214305 9.800510 -1.879918
LeftLeg 12.297739 -0.000000 -0.000000
LeftFoot 35.127690 28.758683 -17.335379
LeftToeBase 13.262195 -0.000000 -0.000000
RightUpLeg -31.258322 2.351280 20.943391
RightLeg 3.830794 -0.000000 -0.000000
RightFoot -13.264162 -8.188499 -7.609529
RightToeBase -1.891299 -0.000000 0.000000
369
root 23.432721 32.243977 -2.496131 156.221305 -75.335673 -116.262569
Spine 25.379454 14.471146 3.587409
Head -40.187674 -1.469964 8.349099
LeftShoulder 18.534355 -4.975893 26.244540
LeftArm 65.925483 -12.821274 -33.029827
LeftForeArm 2.616060 0.000000 15.847316
LeftHand -25.182075 -0.000000 -4.435707
LeftHandThumb1 -26.253704 0.000000 33.147579
RightShoulder 13.426476 36.113920 -23.274452
RightArm 43.991348 -10.442015 54.940132
RightForeArm -21.813378 -0.000000 16.833970
RightHand -5.283681 -0.000000 3.588552
RightHandThumb1 -24.326973 -0.000000 -32.862282
LeftUpLeg -78.406029 9.812831 -1.969744
LeftLeg 12.627606 -0.000000 -0.000000
LeftFoot 34.565620 28.735799 -18.062568
LeftToeBase 12.506492 -0.000000 -0.000000
RightUpLeg -31.115088 2.391309 20.847455
RightLeg 3.821592 -0.000000 -0.000000
RightFoot -13.490749 -8.326633 -7.548729
RightToeBase -2.086181 -0.000000 0.000000
370
root 23.205860 32.224204 -2.499831 156.515153 -75.328625 -116.327742
Spine 25.271479 14.486683 3.386204
Head -40.171514 -1.370016 8.380295
LeftShoulder 18.429270 -5.257828 26.521037
LeftArm 65.883846 -13.288767 -33.000601
LeftForeArm 2.553818 0.000000 15.978030
LeftHand -25.150135 -0.000000 -4.162743
LeftHandThumb1 -26.253704 0.000000 33.147579
RightShoulder 13.403073 36.223344 -23.438937
RightArm 44.363372 -10.084336 54.663311
RightForeArm -21.798545 -0.000000 16.877212
RightHand -5.146473 -0.000000 3.336358
RightHandThumb1 -24.326973 -0.000000 -32.862282
LeftUpLeg -78.531201 9.788540 -1.976951
LeftLeg 12.949888 -0.000000 -0.000000
LeftFoot 33.946015 28.683593 -18.796397
LeftToeBase 12.020149 -0.000000 -0.000000
RightUpLeg -30.976056 2.410072 20.745922
RightLeg 3.936579 -0.000000 -0.000000
RightFoot -13.827539 -8.315217 -7.531870
RightToeBase -2.010041 -0.000000 0.000000
371
root 22.972539 32.206212 -2.500658 157.022346 -75.331813 -116.589560
Spine 25.148484 14.540845 3.118354
Head -40.137968 -1.324818 8.497297
LeftShoulder 18.347154 -5.550140 26.816315
LeftArm 65.884283 -13.810772 -33.132929
LeftForeArm 2.624453 -0.000000 16.035171
LeftHand -25.167680 -0.000000 -4.388137
LeftHandThumb1 -26.253704 0.000000 33.147579
RightShoulder 13.385409 36.411987 -23.595930
RightArm 44.552140 -9.725083 54.520608
RightForeArm -21.804304 -0.000000 17.021046
RightHand -5.192865 -0.000000 3.133027
RightHandThumb1 -24.326973 -0.000000 -32.862282
LeftUpLeg -78.669315 9.760029 -2.006920
LeftLeg 13.342228 -0.000000 -0.000000
LeftFoot 33.269570 28.726210 -19.720539
LeftToeBase 11.482078 -0.000000 -0.000000
RightUpLeg -30.850806 2.430009 20.591296
RightLeg 4.033458 -0.000000 -0.000000
RightFoot -14.139557 -8.310579 -7.453553
RightToeBase -2.034858 -0.000000 0.000000
